<?xml version="1.0" encoding="UTF-8" standalone="no"?>
<svg
   xmlns:dc="http://purl.org/dc/elements/1.1/"
   xmlns:cc="http://creativecommons.org/ns#"
   xmlns:rdf="http://www.w3.org/1999/02/22-rdf-syntax-ns#"
   xmlns:svg="http://www.w3.org/2000/svg"
   xmlns="http://www.w3.org/2000/svg"
   xmlns:sodipodi="http://sodipodi.sourceforge.net/DTD/sodipodi-0.dtd"
   xmlns:inkscape="http://www.inkscape.org/namespaces/inkscape"
   width="65.575195mm"
   height="17.326307mm"
   viewBox="0 0 65.575196 17.326307"
   version="1.1"
   id="svg8"
   inkscape:version="1.0.2 (e86c870879, 2021-01-15, custom)"
   sodipodi:docname="logo.svg">
  <defs
     id="defs2" />
  <sodipodi:namedview
     id="base"
     pagecolor="#ffffff"
     bordercolor="#666666"
     borderopacity="1.0"
     inkscape:pageopacity="0.0"
     inkscape:pageshadow="2"
     inkscape:zoom="3.959798"
     inkscape:cx="144.05998"
     inkscape:cy="73.367991"
     inkscape:document-units="mm"
     inkscape:current-layer="layer1"
     inkscape:document-rotation="0"
     showgrid="false"
     inkscape:window-width="1920"
     inkscape:window-height="1057"
     inkscape:window-x="-8"
     inkscape:window-y="-8"
     inkscape:window-maximized="1" />
  <metadata
     id="metadata5">
    <rdf:RDF>
      <cc:Work
         rdf:about="">
        <dc:format>image/svg+xml</dc:format>
        <dc:type
           rdf:resource="http://purl.org/dc/dcmitype/StillImage" />
        <dc:title />
      </cc:Work>
    </rdf:RDF>
  </metadata>
  <g
     inkscape:label="Layer 1"
     inkscape:groupmode="layer"
     id="layer1"
     transform="translate(-12.607461,-87.408957)">
    <rect
       style="fill:#000000;fill-opacity:1;stroke:#262626;stroke-width:0.2;stroke-miterlimit:4;stroke-dasharray:none;stroke-opacity:1"
       id="rect839"
       width="17.504278"
       height="17.126307"
       x="12.707461"
       y="87.508957" />
    <rect
       style="fill:none;stroke-width:0.365001"
       id="rect10"
       width="35.624256"
       height="35.057293"
       x="10.677828"
       y="79.941963" />
    <g
       aria-label="td"
       id="text14"
       style="font-size:19.7556px;line-height:1.25;font-family:Assistant;-inkscape-font-specification:Assistant;letter-spacing:-1.21708px;fill:#ffffff;fill-opacity:1;stroke:none;stroke-width:0.2;stroke-miterlimit:4;stroke-dasharray:none">
      <path
         d="m 18.141458,102.97101 q -1.619959,0 -2.271894,-0.92852 -0.651935,-0.94826 -0.651935,-2.44969 V 94.673655 H 13.814982 V 93.17223 l 1.501425,-0.09878 0.237068,-2.667006 h 1.65947 v 2.667006 h 2.528717 v 1.600203 h -2.528717 v 4.9389 q 0,0.849495 0.335845,1.303865 0.335845,0.45438 1.086558,0.45438 0.256823,0 0.533401,-0.0593 0.296334,-0.079 0.513646,-0.1778 l 0.355601,1.48167 q -0.395112,0.13829 -0.889002,0.23706 -0.49389,0.11854 -1.007536,0.11854 z"
         style="font-style:normal;font-variant:normal;font-weight:600;font-stretch:normal;font-size:19.7556px;font-family:Assistant;-inkscape-font-specification:'Assistant Semi-Bold';letter-spacing:-1.21708px;fill:#ffffff;fill-opacity:1;stroke:none;stroke-width:0.2;stroke-miterlimit:4;stroke-dasharray:none;stroke-opacity:1"
         id="path846" />
      <path
         d="m 23.661047,102.97101 q -1.79776,0 -2.884318,-1.32363 -1.086558,-1.34338 -1.086558,-3.733806 0,-1.560693 0.572912,-2.686762 0.592668,-1.145825 1.540937,-1.758248 0.948269,-0.632179 2.015071,-0.632179 0.849491,0 1.442159,0.296334 0.592668,0.276578 1.165581,0.790224 l -0.07902,-1.600204 V 88.72722 h 1.995316 v 14.00672 h -1.639715 l -0.158045,-1.08656 h -0.05927 q -0.533401,0.5334 -1.264358,0.92852 -0.730957,0.39511 -1.560692,0.39511 z m 0.474134,-1.65947 q 0.612424,0 1.145825,-0.27658 0.553157,-0.29634 1.066802,-0.90876 v -4.741343 q -0.533401,-0.49389 -1.066802,-0.691446 -0.513646,-0.197556 -1.066803,-0.197556 -0.691446,0 -1.244602,0.414868 -0.553157,0.395112 -0.889002,1.16558 -0.335846,0.770468 -0.335846,1.817515 0,1.639715 0.612424,2.528712 0.632179,0.88901 1.778004,0.88901 z"
         style="font-style:normal;font-variant:normal;font-weight:600;font-stretch:normal;font-size:19.7556px;font-family:Assistant;-inkscape-font-specification:'Assistant Semi-Bold';letter-spacing:-1.21708px;fill:#ffffff;fill-opacity:1;stroke:none;stroke-width:0.2;stroke-miterlimit:4;stroke-dasharray:none;stroke-opacity:1"
         id="path848" />
    </g>
    <g
       aria-label="TRIVIAL"
       transform="scale(1.0225083,0.97798717)"
       id="text847"
       style="font-size:12.0016px;line-height:1.25;font-family:Assistant;-inkscape-font-specification:Assistant;fill:#262626;fill-opacity:1;stroke-width:0.300041">
      <path
         d="m 32.99996,97.761063 v -6.828911 h -2.316309 v -1.032138 h 5.856781 v 1.032138 h -2.316309 v 6.828911 z"
         style="font-style:normal;font-variant:normal;font-weight:600;font-stretch:normal;font-family:Assistant;-inkscape-font-specification:'Assistant Semi-Bold';letter-spacing:1.24883px;fill:#262626;fill-opacity:1;stroke-width:0.300041"
         id="path851" />
      <path
         d="m 39.14544,97.761063 v -7.861049 h 2.568343 q 0.804107,0 1.440192,0.216029 0.648086,0.204027 1.020136,0.708095 0.372049,0.504067 0.372049,1.35618 0,0.816109 -0.372049,1.34418 -0.37205,0.52807 -1.020136,0.792105 -0.636085,0.264036 -1.440192,0.264036 h -1.344179 v 3.180424 z m 4.296573,0 -1.968262,-3.516469 0.912121,-0.684091 2.436325,4.20056 z m -3.072409,-4.164556 h 1.20016 q 0.864115,0 1.308174,-0.348046 0.456061,-0.360048 0.456061,-1.068143 0,-0.720096 -0.456061,-1.008134 -0.444059,-0.288038 -1.308174,-0.288038 h -1.20016 z"
         style="font-style:normal;font-variant:normal;font-weight:600;font-stretch:normal;font-family:Assistant;-inkscape-font-specification:'Assistant Semi-Bold';letter-spacing:1.24883px;fill:#262626;fill-opacity:1;stroke-width:0.300041"
         id="path853" />
      <path
         d="m 47.379187,97.761063 v -7.861049 h 1.224164 v 7.861049 z"
         style="font-style:normal;font-variant:normal;font-weight:600;font-stretch:normal;font-family:Assistant;-inkscape-font-specification:'Assistant Semi-Bold';letter-spacing:1.24883px;fill:#262626;fill-opacity:1;stroke-width:0.300041"
         id="path855" />
      <path
         d="m 53.332625,97.761063 -2.47233,-7.861049 h 1.296173 l 1.176157,4.080545 q 0.204027,0.684091 0.360048,1.296172 0.156021,0.60008 0.360048,1.284172 h 0.04801 q 0.204027,-0.684092 0.360048,-1.284172 0.168023,-0.612081 0.360048,-1.296172 l 1.164155,-4.080545 h 1.248167 l -2.460328,7.861049 z"
         style="font-style:normal;font-variant:normal;font-weight:600;font-stretch:normal;font-family:Assistant;-inkscape-font-specification:'Assistant Semi-Bold';letter-spacing:1.24883px;fill:#262626;fill-opacity:1;stroke-width:0.300041"
         id="path857" />
      <path
         d="m 59.49009,97.761063 v -7.861049 h 1.224163 v 7.861049 z"
         style="font-style:normal;font-variant:normal;font-weight:600;font-stretch:normal;font-family:Assistant;-inkscape-font-specification:'Assistant Semi-Bold';letter-spacing:1.24883px;fill:#262626;fill-opacity:1;stroke-width:0.300041"
         id="path859" />
      <path
         d="m 62.995201,97.761063 2.604347,-7.861049 h 1.416189 l 2.604347,7.861049 h -1.296172 l -1.27217,-4.27257 Q 66.847715,92.840407 66.667691,92.19232 66.487667,91.532232 66.307643,90.872144 h -0.04801 q -0.168022,0.660088 -0.360048,1.320176 -0.180024,0.648087 -0.372049,1.296173 l -1.284171,4.27257 z m 1.464195,-2.2443 v -0.960128 h 3.660488 v 0.960128 z"
         style="font-style:normal;font-variant:normal;font-weight:600;font-stretch:normal;font-family:Assistant;-inkscape-font-specification:'Assistant Semi-Bold';letter-spacing:1.24883px;fill:#262626;fill-opacity:1;stroke-width:0.300041"
         id="path861" />
      <path
         d="m 71.90103,97.761063 v -7.861049 h 1.224164 v 6.828911 h 3.336444 v 1.032138 z"
         style="font-style:normal;font-variant:normal;font-weight:600;font-stretch:normal;font-family:Assistant;-inkscape-font-specification:'Assistant Semi-Bold';letter-spacing:1.24883px;fill:#262626;fill-opacity:1;stroke-width:0.300041"
         id="path863" />
    </g>
    <g
       aria-label="discourse"
       id="text851"
       style="font-style:normal;font-variant:normal;font-weight:200;font-stretch:normal;font-size:10.5833px;line-height:1.25;font-family:Assistant;-inkscape-font-specification:'Assistant Ultra-Light';fill:#262626;fill-opacity:1;stroke-width:0.264583">
      <path
         d="m 33.717738,104.08936 q -0.952497,0 -1.523995,-0.67734 -0.571498,-0.68791 -0.571498,-1.96849 0,-0.81491 0.306916,-1.40758 0.317499,-0.603246 0.825497,-0.931328 0.518582,-0.328082 1.132413,-0.328082 0.465665,0 0.814914,0.169333 0.359832,0.158749 0.751415,0.465665 l -0.02117,-0.952497 v -2.137827 h 0.317499 v 7.641146 h -0.275166 l -0.04233,-0.67733 h -0.02117 q -0.317499,0.31749 -0.740831,0.56091 -0.423332,0.24342 -0.952497,0.24342 z m 0.02117,-0.29634 q 0.444499,0 0.857247,-0.23283 0.412749,-0.23283 0.836081,-0.65616 v -3.13266 q -0.423332,-0.380999 -0.793748,-0.539748 -0.370415,-0.15875 -0.77258,-0.15875 -0.539749,0 -0.973664,0.317499 -0.423332,0.317499 -0.677331,0.857249 -0.253999,0.53975 -0.253999,1.19591 0,1.04775 0.455082,1.70391 0.465665,0.64558 1.322912,0.64558 z"
         style="font-style:normal;font-variant:normal;font-weight:200;font-stretch:normal;font-family:Assistant;-inkscape-font-specification:'Assistant Ultra-Light';letter-spacing:0.85725px;fill:#262626;fill-opacity:1;stroke-width:0.264583"
         id="path866" />
      <path
         d="m 38.638965,103.96236 v -5.058821 h 0.317499 v 5.058821 z m 0.169333,-6.349983 q -0.137583,0 -0.243416,-0.105833 -0.09525,-0.105833 -0.09525,-0.275166 0,-0.158749 0.09525,-0.253999 0.105833,-0.105833 0.243416,-0.105833 0.148166,0 0.243416,0.105833 0.09525,0.09525 0.09525,0.253999 0,0.169333 -0.09525,0.275166 -0.09525,0.105833 -0.243416,0.105833 z"
         style="font-style:normal;font-variant:normal;font-weight:200;font-stretch:normal;font-family:Assistant;-inkscape-font-specification:'Assistant Ultra-Light';letter-spacing:0.85725px;fill:#262626;fill-opacity:1;stroke-width:0.264583"
         id="path868" />
      <path
         d="m 43.031018,104.08936 q -0.571498,0 -1.037163,-0.20109 -0.465665,-0.21166 -0.804331,-0.49741 l 0.211666,-0.254 q 0.317499,0.26458 0.698498,0.46566 0.380999,0.1905 0.952497,0.1905 0.634998,0 0.96308,-0.32808 0.328082,-0.32808 0.328082,-0.75141 0,-0.33867 -0.201082,-0.56092 -0.1905,-0.22225 -0.486832,-0.37041 -0.285749,-0.14817 -0.582082,-0.254 -0.391582,-0.13759 -0.77258,-0.30692 -0.380999,-0.16933 -0.634998,-0.43391 -0.243416,-0.26459 -0.243416,-0.6985 0,-0.529166 0.402165,-0.920748 0.412749,-0.391582 1.18533,-0.391582 0.380998,0 0.751414,0.148166 0.380999,0.137583 0.645581,0.359832 l -0.190499,0.253999 q -0.253999,-0.190499 -0.539749,-0.328082 -0.285749,-0.137583 -0.687914,-0.137583 -0.634998,0 -0.93133,0.317499 -0.296333,0.306916 -0.296333,0.677329 0,0.30692 0.179916,0.508 0.179916,0.1905 0.455082,0.32808 0.285749,0.127 0.592665,0.24342 0.402165,0.15875 0.793747,0.32808 0.391583,0.15875 0.645582,0.4445 0.253999,0.27517 0.253999,0.77258 0,0.37042 -0.190499,0.68792 -0.1905,0.31749 -0.560915,0.51858 -0.370416,0.1905 -0.899581,0.1905 z"
         style="font-style:normal;font-variant:normal;font-weight:200;font-stretch:normal;font-family:Assistant;-inkscape-font-specification:'Assistant Ultra-Light';letter-spacing:0.85725px;fill:#262626;fill-opacity:1;stroke-width:0.264583"
         id="path870" />
      <path
         d="m 48.756582,104.08936 q -0.645581,0 -1.164163,-0.30692 -0.507998,-0.3175 -0.804331,-0.91016 -0.296332,-0.59267 -0.296332,-1.42875 0,-0.84666 0.317499,-1.43933 0.317499,-0.603246 0.825497,-0.910161 0.518582,-0.317499 1.12183,-0.317499 0.529165,0 0.878414,0.201082 0.349249,0.1905 0.603248,0.433916 l -0.211666,0.232832 q -0.253999,-0.243416 -0.560915,-0.402165 -0.306916,-0.169333 -0.709081,-0.169333 -0.539748,0 -0.973664,0.306916 -0.433915,0.296332 -0.698497,0.836082 -0.254,0.52916 -0.254,1.22766 0,0.6985 0.232833,1.22766 0.243416,0.52917 0.677331,0.8255 0.433915,0.29633 1.015997,0.29633 0.433915,0 0.793747,-0.17991 0.359833,-0.17992 0.624415,-0.43392 l 0.190499,0.23283 q -0.317499,0.28575 -0.719664,0.48684 -0.391582,0.1905 -0.888997,0.1905 z"
         style="font-style:normal;font-variant:normal;font-weight:200;font-stretch:normal;font-family:Assistant;-inkscape-font-specification:'Assistant Ultra-Light';letter-spacing:0.85725px;fill:#262626;fill-opacity:1;stroke-width:0.264583"
         id="path872" />
      <path
         d="m 54.143468,104.08936 q -0.603248,0 -1.12183,-0.30692 -0.507998,-0.3175 -0.814914,-0.91016 -0.306916,-0.59267 -0.306916,-1.42875 0,-0.84666 0.306916,-1.43933 0.306916,-0.603246 0.814914,-0.910161 0.518582,-0.317499 1.12183,-0.317499 0.603248,0 1.111246,0.317499 0.507999,0.306915 0.814914,0.910161 0.317499,0.59267 0.317499,1.43933 0,0.83608 -0.317499,1.42875 -0.306915,0.59266 -0.814914,0.91016 -0.507998,0.30692 -1.111246,0.30692 z m 0,-0.29634 q 0.539748,0 0.973663,-0.29633 0.433916,-0.29633 0.677331,-0.8255 0.254,-0.52916 0.254,-1.22766 0,-0.6985 -0.254,-1.22766 -0.243415,-0.53975 -0.677331,-0.836082 -0.433915,-0.306916 -0.973663,-0.306916 -0.539749,0 -0.973664,0.306916 -0.423332,0.296332 -0.677331,0.836082 -0.253999,0.52916 -0.253999,1.22766 0,0.6985 0.253999,1.22766 0.253999,0.52917 0.677331,0.8255 0.433915,0.29633 0.973664,0.29633 z"
         style="font-style:normal;font-variant:normal;font-weight:200;font-stretch:normal;font-family:Assistant;-inkscape-font-specification:'Assistant Ultra-Light';letter-spacing:0.85725px;fill:#262626;fill-opacity:1;stroke-width:0.264583"
         id="path874" />
      <path
         d="m 60.271196,104.08936 q -0.772581,0 -1.15358,-0.46567 -0.370415,-0.47625 -0.370415,-1.46049 V 98.903539 H 59.0647 v 3.217321 q 0,0.83608 0.285749,1.25942 0.296332,0.41274 0.941913,0.41274 0.476249,0 0.867831,-0.26458 0.391582,-0.26458 0.867831,-0.83608 v -3.788821 h 0.317499 v 5.058821 h -0.275166 l -0.04233,-0.86783 h -0.02117 q -0.380999,0.44449 -0.793748,0.71966 -0.412748,0.27517 -0.941913,0.27517 z"
         style="font-style:normal;font-variant:normal;font-weight:200;font-stretch:normal;font-family:Assistant;-inkscape-font-specification:'Assistant Ultra-Light';letter-spacing:0.85725px;fill:#262626;fill-opacity:1;stroke-width:0.264583"
         id="path876" />
      <path
         d="m 65.234747,103.96236 v -5.058821 h 0.275166 l 0.04233,0.952497 h 0.02117 q 0.254,-0.465665 0.613832,-0.772581 0.370415,-0.306915 0.825497,-0.306915 0.127,0 0.243416,0.02117 0.116416,0.02117 0.243416,0.08467 l -0.08467,0.296332 q -0.126999,-0.05292 -0.211666,-0.0635 -0.08467,-0.02117 -0.232832,-0.02117 -0.349249,0 -0.730248,0.306915 -0.380999,0.296333 -0.687914,1.047746 v 3.51366 z"
         style="font-style:normal;font-variant:normal;font-weight:200;font-stretch:normal;font-family:Assistant;-inkscape-font-specification:'Assistant Ultra-Light';letter-spacing:0.85725px;fill:#262626;fill-opacity:1;stroke-width:0.264583"
         id="path878" />
      <path
         d="m 70.515814,104.08936 q -0.571498,0 -1.037164,-0.20109 -0.465665,-0.21166 -0.80433,-0.49741 l 0.211666,-0.254 q 0.317499,0.26458 0.698497,0.46566 0.380999,0.1905 0.952497,0.1905 0.634998,0 0.963081,-0.32808 0.328082,-0.32808 0.328082,-0.75141 0,-0.33867 -0.201083,-0.56092 -0.190499,-0.22225 -0.486832,-0.37041 -0.285749,-0.14817 -0.582081,-0.254 -0.391582,-0.13759 -0.772581,-0.30692 -0.380999,-0.16933 -0.634998,-0.43391 -0.243416,-0.26459 -0.243416,-0.6985 0,-0.529166 0.402166,-0.920748 0.412748,-0.391582 1.185329,-0.391582 0.380999,0 0.751414,0.148166 0.380999,0.137583 0.645582,0.359832 l -0.1905,0.253999 q -0.253999,-0.190499 -0.539748,-0.328082 -0.285749,-0.137583 -0.687914,-0.137583 -0.634998,0 -0.931331,0.317499 -0.296332,0.306916 -0.296332,0.677329 0,0.30692 0.179916,0.508 0.179916,0.1905 0.455082,0.32808 0.285749,0.127 0.592665,0.24342 0.402165,0.15875 0.793747,0.32808 0.391582,0.15875 0.645581,0.4445 0.254,0.27517 0.254,0.77258 0,0.37042 -0.1905,0.68792 -0.190499,0.31749 -0.560915,0.51858 -0.370415,0.1905 -0.89958,0.1905 z"
         style="font-style:normal;font-variant:normal;font-weight:200;font-stretch:normal;font-family:Assistant;-inkscape-font-specification:'Assistant Ultra-Light';letter-spacing:0.85725px;fill:#262626;fill-opacity:1;stroke-width:0.264583"
         id="path880" />
      <path
         d="m 76.283714,104.08936 q -0.634998,0 -1.164163,-0.3175 -0.518582,-0.3175 -0.836081,-0.91017 -0.306916,-0.59266 -0.306916,-1.41816 0,-0.8255 0.306916,-1.41816 0.317499,-0.603249 0.814914,-0.920748 0.497415,-0.328082 1.05833,-0.328082 0.582081,0 1.005413,0.275166 0.433916,0.264582 0.666748,0.783164 0.232833,0.51858 0.232833,1.27 0,0.0741 0,0.15875 0,0.0847 -0.02117,0.17991 h -3.831154 v -0.29633 h 3.534822 q 0,-1.04775 -0.433915,-1.555746 -0.433916,-0.518582 -1.15358,-0.518582 -0.444499,0 -0.867831,0.264583 -0.423332,0.253999 -0.698497,0.783165 -0.275166,0.51858 -0.275166,1.32291 0,0.73025 0.264582,1.25941 0.264583,0.51859 0.709081,0.80433 0.455082,0.28575 1.015997,0.28575 0.433915,0 0.772581,-0.127 0.338666,-0.13758 0.624415,-0.33866 l 0.148166,0.27516 q -0.285749,0.16934 -0.645581,0.32809 -0.349249,0.15875 -0.920747,0.15875 z"
         style="font-style:normal;font-variant:normal;font-weight:200;font-stretch:normal;font-family:Assistant;-inkscape-font-specification:'Assistant Ultra-Light';letter-spacing:0.85725px;fill:#262626;fill-opacity:1;stroke-width:0.264583"
         id="path882" />
    </g>
  </g>
</svg>
